<svg width="201" height="408" viewBox="0 0 201 408" fill="none" xmlns="http://www.w3.org/2000/svg">
<g clip-path="url(#clip0_2111_14)">
<path fill-rule="evenodd" clip-rule="evenodd" d="M41.372 0H159.628C187.1 0 200.002 15.213 200.002 40.299V129.575C200.584 129.78 201 130.333 201 130.983V177.333C201 177.983 200.584 178.536 200.002 178.741V371.813C200.002 394.615 187.051 408 164.207 408H36.7934C13.9491 408 0.997519 395.071 0.997519 371.813V178.36C0.416368 178.155 0 177.602 0 176.952V149.399C0 148.748 0.416368 148.195 0.997519 147.99V138.858C0.416368 138.653 0 138.1 0 137.45V109.44C0 108.789 0.416368 108.236 0.997519 108.031V94.0845C0.416368 93.8795 0 93.3262 0 92.6759V80.229C0 79.5787 0.416368 79.0254 0.997519 78.8204V40.299C0.997519 15.2143 13.9005 0 41.372 0Z" fill="black"/>
<mask id="mask0_2111_14" style="mask-type:alpha" maskUnits="userSpaceOnUse" x="10" y="8" width="181" height="390">
<path fill-rule="evenodd" clip-rule="evenodd" d="M190.469 368.251V38.3785C190.469 20.5599 183.372 8.68085 161.166 8.68085H39.8337C17.6276 8.68085 10.5308 20.5599 10.5308 38.3785V368.251C10.5308 386.069 17.6276 397.948 39.8337 397.948H161.166C183.372 397.948 190.469 386.069 190.469 368.251ZM80.3542 13.7066C75.6761 13.7066 71.8838 17.4909 71.8838 22.159C71.8838 26.8271 75.6761 30.6114 80.3542 30.6114H120.646C125.324 30.6114 129.116 26.8271 129.116 22.159C129.116 17.4909 125.324 13.7066 120.646 13.7066H80.3542Z" fill="#D9D9D9"/>
</mask>
<g mask="url(#mask0_2111_14)">
<rect x="11" y="9" width="182" height="389" fill="url(#paint0_linear_2111_14)"/>
<rect x="11" y="363" width="180" height="35" fill="#4B0606"/>
<path d="M86.6289 382.513H87.6602C87.6064 383.007 87.465 383.45 87.2358 383.84C87.0067 384.23 86.6826 384.54 86.2637 384.769C85.8447 384.995 85.3219 385.107 84.6953 385.107C84.237 385.107 83.8198 385.021 83.4438 384.85C83.0715 384.678 82.751 384.434 82.4824 384.119C82.2139 383.8 82.0062 383.419 81.8594 382.975C81.7161 382.528 81.6445 382.03 81.6445 381.482V380.703C81.6445 380.155 81.7161 379.659 81.8594 379.215C82.0062 378.768 82.2157 378.385 82.4878 378.066C82.7635 377.747 83.0947 377.502 83.4814 377.33C83.8682 377.158 84.3032 377.072 84.7866 377.072C85.3774 377.072 85.877 377.183 86.2852 377.405C86.6934 377.627 87.0103 377.935 87.2358 378.329C87.465 378.719 87.6064 379.172 87.6602 379.688H86.6289C86.5788 379.323 86.4857 379.009 86.3496 378.748C86.2135 378.483 86.0202 378.279 85.7695 378.136C85.5189 377.993 85.1912 377.921 84.7866 377.921C84.4393 377.921 84.1331 377.987 83.8682 378.12C83.6068 378.252 83.3866 378.44 83.2075 378.684C83.0321 378.927 82.8996 379.219 82.8101 379.559C82.7205 379.899 82.6758 380.277 82.6758 380.692V381.482C82.6758 381.865 82.7152 382.225 82.7939 382.562C82.8763 382.898 82.9998 383.194 83.1646 383.448C83.3293 383.702 83.5387 383.903 83.793 384.049C84.0472 384.193 84.348 384.264 84.6953 384.264C85.1357 384.264 85.4867 384.194 85.748 384.055C86.0094 383.915 86.2064 383.715 86.3389 383.453C86.4749 383.192 86.5716 382.878 86.6289 382.513ZM88.6592 382.159V382.035C88.6592 381.616 88.7201 381.228 88.8418 380.87C88.9635 380.508 89.139 380.195 89.3682 379.93C89.5973 379.661 89.8748 379.453 90.2007 379.307C90.5265 379.156 90.8918 379.081 91.2964 379.081C91.7046 379.081 92.0716 379.156 92.3975 379.307C92.7269 379.453 93.0062 379.661 93.2354 379.93C93.4681 380.195 93.6453 380.508 93.7671 380.87C93.8888 381.228 93.9497 381.616 93.9497 382.035V382.159C93.9497 382.578 93.8888 382.966 93.7671 383.324C93.6453 383.682 93.4681 383.996 93.2354 384.264C93.0062 384.529 92.7287 384.737 92.4028 384.887C92.0806 385.034 91.7153 385.107 91.3071 385.107C90.8989 385.107 90.5319 385.034 90.2061 384.887C89.8802 384.737 89.6009 384.529 89.3682 384.264C89.139 383.996 88.9635 383.682 88.8418 383.324C88.7201 382.966 88.6592 382.578 88.6592 382.159ZM89.6528 382.035V382.159C89.6528 382.449 89.6868 382.723 89.7549 382.98C89.8229 383.235 89.925 383.46 90.061 383.657C90.2007 383.854 90.3743 384.01 90.582 384.125C90.7897 384.236 91.0314 384.291 91.3071 384.291C91.5793 384.291 91.8174 384.236 92.0215 384.125C92.2292 384.01 92.401 383.854 92.5371 383.657C92.6732 383.46 92.7752 383.235 92.8433 382.98C92.9149 382.723 92.9507 382.449 92.9507 382.159V382.035C92.9507 381.749 92.9149 381.478 92.8433 381.224C92.7752 380.966 92.6714 380.739 92.5317 380.542C92.3957 380.341 92.2238 380.184 92.0161 380.069C91.812 379.955 91.5721 379.897 91.2964 379.897C91.0243 379.897 90.7843 379.955 90.5767 380.069C90.3726 380.184 90.2007 380.341 90.061 380.542C89.925 380.739 89.8229 380.966 89.7549 381.224C89.6868 381.478 89.6528 381.749 89.6528 382.035ZM96.1895 380.429V385H95.1958V379.188H96.1357L96.1895 380.429ZM95.9531 381.874L95.5396 381.858C95.5431 381.46 95.6022 381.093 95.7168 380.757C95.8314 380.417 95.9925 380.121 96.2002 379.871C96.4079 379.62 96.6549 379.427 96.9414 379.291C97.2314 379.151 97.5519 379.081 97.9028 379.081C98.1893 379.081 98.4471 379.12 98.6763 379.199C98.9054 379.274 99.1006 379.396 99.2617 379.564C99.4264 379.733 99.5518 379.951 99.6377 380.22C99.7236 380.485 99.7666 380.809 99.7666 381.192V385H98.7676V381.181C98.7676 380.877 98.7228 380.633 98.6333 380.451C98.5438 380.264 98.4131 380.13 98.2412 380.048C98.0693 379.962 97.8581 379.919 97.6074 379.919C97.3604 379.919 97.1348 379.971 96.9307 380.075C96.7301 380.179 96.5565 380.322 96.4097 380.504C96.2664 380.687 96.1536 380.896 96.0713 381.133C95.9925 381.366 95.9531 381.613 95.9531 381.874ZM102.27 380.429V385H101.276V379.188H102.216L102.27 380.429ZM102.033 381.874L101.62 381.858C101.623 381.46 101.682 381.093 101.797 380.757C101.911 380.417 102.073 380.121 102.28 379.871C102.488 379.62 102.735 379.427 103.021 379.291C103.312 379.151 103.632 379.081 103.983 379.081C104.269 379.081 104.527 379.12 104.756 379.199C104.986 379.274 105.181 379.396 105.342 379.564C105.507 379.733 105.632 379.951 105.718 380.22C105.804 380.485 105.847 380.809 105.847 381.192V385H104.848V381.181C104.848 380.877 104.803 380.633 104.713 380.451C104.624 380.264 104.493 380.13 104.321 380.048C104.149 379.962 103.938 379.919 103.688 379.919C103.44 379.919 103.215 379.971 103.011 380.075C102.81 380.179 102.637 380.322 102.49 380.504C102.347 380.687 102.234 380.896 102.151 381.133C102.073 381.366 102.033 381.613 102.033 381.874ZM109.768 385.107C109.363 385.107 108.996 385.039 108.667 384.903C108.341 384.764 108.06 384.569 107.823 384.318C107.59 384.067 107.411 383.77 107.286 383.426C107.161 383.083 107.098 382.707 107.098 382.298V382.073C107.098 381.6 107.168 381.179 107.308 380.811C107.447 380.438 107.637 380.123 107.877 379.865C108.117 379.607 108.389 379.412 108.693 379.28C108.998 379.147 109.313 379.081 109.639 379.081C110.054 379.081 110.412 379.153 110.713 379.296C111.017 379.439 111.266 379.64 111.459 379.897C111.653 380.152 111.796 380.452 111.889 380.8C111.982 381.144 112.029 381.52 112.029 381.928V382.374H107.689V381.562H111.035V381.487C111.021 381.229 110.967 380.979 110.874 380.735C110.785 380.492 110.641 380.291 110.444 380.134C110.247 379.976 109.979 379.897 109.639 379.897C109.413 379.897 109.205 379.946 109.016 380.042C108.826 380.136 108.663 380.275 108.527 380.461C108.391 380.648 108.285 380.875 108.21 381.144C108.135 381.412 108.097 381.722 108.097 382.073V382.298C108.097 382.574 108.135 382.834 108.21 383.077C108.289 383.317 108.402 383.528 108.548 383.711C108.699 383.894 108.88 384.037 109.091 384.141C109.306 384.244 109.549 384.296 109.821 384.296C110.172 384.296 110.469 384.225 110.713 384.082C110.956 383.938 111.169 383.747 111.352 383.507L111.954 383.985C111.828 384.175 111.669 384.355 111.476 384.527C111.282 384.699 111.044 384.839 110.761 384.946C110.482 385.054 110.151 385.107 109.768 385.107ZM115.515 384.291C115.751 384.291 115.969 384.243 116.17 384.146C116.37 384.049 116.535 383.917 116.664 383.749C116.793 383.577 116.866 383.382 116.884 383.163H117.83C117.812 383.507 117.695 383.827 117.48 384.125C117.269 384.418 116.992 384.656 116.648 384.839C116.304 385.018 115.926 385.107 115.515 385.107C115.078 385.107 114.696 385.03 114.371 384.876C114.048 384.722 113.78 384.511 113.565 384.243C113.354 383.974 113.194 383.666 113.087 383.319C112.983 382.968 112.931 382.597 112.931 382.207V381.981C112.931 381.591 112.983 381.222 113.087 380.875C113.194 380.524 113.354 380.214 113.565 379.946C113.78 379.677 114.048 379.466 114.371 379.312C114.696 379.158 115.078 379.081 115.515 379.081C115.969 379.081 116.367 379.174 116.707 379.36C117.047 379.543 117.314 379.794 117.507 380.112C117.704 380.427 117.812 380.785 117.83 381.187H116.884C116.866 380.947 116.798 380.73 116.68 380.537C116.566 380.343 116.408 380.189 116.208 380.075C116.011 379.957 115.78 379.897 115.515 379.897C115.21 379.897 114.954 379.958 114.747 380.08C114.542 380.198 114.38 380.359 114.258 380.563C114.14 380.764 114.054 380.988 114 381.235C113.95 381.478 113.925 381.727 113.925 381.981V382.207C113.925 382.461 113.95 382.712 114 382.959C114.05 383.206 114.134 383.43 114.252 383.63C114.374 383.831 114.537 383.992 114.741 384.114C114.949 384.232 115.207 384.291 115.515 384.291ZM121.38 379.188V379.951H118.238V379.188H121.38ZM119.301 377.776H120.295V383.561C120.295 383.757 120.325 383.906 120.386 384.006C120.447 384.107 120.526 384.173 120.623 384.205C120.719 384.237 120.823 384.253 120.934 384.253C121.016 384.253 121.102 384.246 121.192 384.232C121.285 384.214 121.355 384.2 121.401 384.189L121.407 385C121.328 385.025 121.224 385.048 121.095 385.07C120.97 385.095 120.818 385.107 120.639 385.107C120.395 385.107 120.171 385.059 119.967 384.962C119.763 384.866 119.6 384.705 119.479 384.479C119.36 384.25 119.301 383.942 119.301 383.555V377.776ZM124.957 385.107C124.552 385.107 124.185 385.039 123.856 384.903C123.53 384.764 123.249 384.569 123.013 384.318C122.78 384.067 122.601 383.77 122.476 383.426C122.35 383.083 122.288 382.707 122.288 382.298V382.073C122.288 381.6 122.357 381.179 122.497 380.811C122.637 380.438 122.826 380.123 123.066 379.865C123.306 379.607 123.578 379.412 123.883 379.28C124.187 379.147 124.502 379.081 124.828 379.081C125.243 379.081 125.602 379.153 125.902 379.296C126.207 379.439 126.456 379.64 126.649 379.897C126.842 380.152 126.986 380.452 127.079 380.8C127.172 381.144 127.218 381.52 127.218 381.928V382.374H122.878V381.562H126.225V381.487C126.21 381.229 126.157 380.979 126.063 380.735C125.974 380.492 125.831 380.291 125.634 380.134C125.437 379.976 125.168 379.897 124.828 379.897C124.603 379.897 124.395 379.946 124.205 380.042C124.015 380.136 123.852 380.275 123.716 380.461C123.58 380.648 123.475 380.875 123.399 381.144C123.324 381.412 123.287 381.722 123.287 382.073V382.298C123.287 382.574 123.324 382.834 123.399 383.077C123.478 383.317 123.591 383.528 123.738 383.711C123.888 383.894 124.069 384.037 124.28 384.141C124.495 384.244 124.739 384.296 125.011 384.296C125.362 384.296 125.659 384.225 125.902 384.082C126.146 383.938 126.359 383.747 126.542 383.507L127.143 383.985C127.018 384.175 126.858 384.355 126.665 384.527C126.472 384.699 126.234 384.839 125.951 384.946C125.671 385.054 125.34 385.107 124.957 385.107ZM132.042 383.872V376.75H133.041V385H132.127L132.042 383.872ZM128.131 382.159V382.046C128.131 381.602 128.185 381.199 128.292 380.837C128.403 380.472 128.559 380.159 128.76 379.897C128.964 379.636 129.206 379.436 129.485 379.296C129.768 379.153 130.083 379.081 130.43 379.081C130.795 379.081 131.114 379.146 131.386 379.274C131.662 379.4 131.895 379.584 132.084 379.828C132.278 380.068 132.43 380.358 132.541 380.698C132.652 381.038 132.729 381.423 132.772 381.853V382.347C132.733 382.773 132.656 383.156 132.541 383.496C132.43 383.836 132.278 384.126 132.084 384.366C131.895 384.606 131.662 384.791 131.386 384.919C131.111 385.045 130.788 385.107 130.419 385.107C130.079 385.107 129.768 385.034 129.485 384.887C129.206 384.74 128.964 384.535 128.76 384.27C128.559 384.005 128.403 383.693 128.292 383.335C128.185 382.973 128.131 382.581 128.131 382.159ZM129.13 382.046V382.159C129.13 382.449 129.159 382.721 129.216 382.975C129.277 383.229 129.37 383.453 129.496 383.646C129.621 383.84 129.78 383.992 129.974 384.103C130.167 384.21 130.398 384.264 130.667 384.264C130.996 384.264 131.266 384.194 131.478 384.055C131.692 383.915 131.864 383.731 131.993 383.501C132.122 383.272 132.222 383.023 132.294 382.755V381.46C132.251 381.264 132.188 381.074 132.106 380.891C132.027 380.705 131.923 380.54 131.794 380.397C131.669 380.25 131.513 380.134 131.327 380.048C131.145 379.962 130.928 379.919 130.677 379.919C130.405 379.919 130.171 379.976 129.974 380.091C129.78 380.202 129.621 380.356 129.496 380.553C129.37 380.746 129.277 380.972 129.216 381.229C129.159 381.484 129.13 381.756 129.13 382.046Z" fill="#D96C39"/>
<path d="M70.3126 378.58H68.6923V383.811H76.3077V378.58H74.8494M70.3126 378.58H74.8494M70.3126 378.58V377.268C70.3126 376.016 71.3282 375 72.581 375V375C73.8338 375 74.8494 376.016 74.8494 377.268V378.58" stroke="#D96C39"/>
<rect x="68.5" y="378.227" width="8" height="6.27273" fill="#D96C39" stroke="#D96C39"/>
<ellipse cx="72.5" cy="380" rx="1.5" ry="1.36364" fill="#4B0606"/>
<path d="M72 379.205V380.909H73V379.205H72ZM72 380.909V383.182H73V380.909H72Z" fill="#4B0606"/>
<g filter="url(#filter0_d_2111_14)">
<rect x="27" y="41" width="86" height="20" rx="10" fill="white"/>
</g>
<path d="M49.8984 48.3125H50.6289L52.4922 52.9492L54.3516 48.3125H55.0859L52.7734 54H52.2031L49.8984 48.3125ZM49.6602 48.3125H50.3047L50.4102 51.7812V54H49.6602V48.3125ZM54.6758 48.3125H55.3203V54H54.5703V51.7812L54.6758 48.3125ZM57.3203 49.7734V54H56.5938V49.7734H57.3203ZM56.5391 48.6523C56.5391 48.5352 56.5742 48.4362 56.6445 48.3555C56.7174 48.2747 56.8242 48.2344 56.9648 48.2344C57.1029 48.2344 57.2083 48.2747 57.2812 48.3555C57.3568 48.4362 57.3945 48.5352 57.3945 48.6523C57.3945 48.7643 57.3568 48.8607 57.2812 48.9414C57.2083 49.0195 57.1029 49.0586 56.9648 49.0586C56.8242 49.0586 56.7174 49.0195 56.6445 48.9414C56.5742 48.8607 56.5391 48.7643 56.5391 48.6523ZM59.2031 50.6758V54H58.4805V49.7734H59.1641L59.2031 50.6758ZM59.0312 51.7266L58.7305 51.7148C58.7331 51.4258 58.776 51.1589 58.8594 50.9141C58.9427 50.6667 59.0599 50.4518 59.2109 50.2695C59.362 50.0872 59.5417 49.9466 59.75 49.8477C59.9609 49.7461 60.194 49.6953 60.4492 49.6953C60.6576 49.6953 60.8451 49.724 61.0117 49.7812C61.1784 49.8359 61.3203 49.9245 61.4375 50.0469C61.5573 50.1693 61.6484 50.3281 61.7109 50.5234C61.7734 50.7161 61.8047 50.9518 61.8047 51.2305V54H61.0781V51.2227C61.0781 51.0013 61.0456 50.8242 60.9805 50.6914C60.9154 50.556 60.8203 50.4583 60.6953 50.3984C60.5703 50.3359 60.4167 50.3047 60.2344 50.3047C60.0547 50.3047 59.8906 50.3424 59.7422 50.418C59.5964 50.4935 59.4701 50.5977 59.3633 50.7305C59.2591 50.8633 59.1771 51.0156 59.1172 51.1875C59.0599 51.3568 59.0312 51.5365 59.0312 51.7266ZM63.625 50.6758V54H62.9023V49.7734H63.5859L63.625 50.6758ZM63.4531 51.7266L63.1523 51.7148C63.1549 51.4258 63.1979 51.1589 63.2812 50.9141C63.3646 50.6667 63.4818 50.4518 63.6328 50.2695C63.7839 50.0872 63.9635 49.9466 64.1719 49.8477C64.3828 49.7461 64.6159 49.6953 64.8711 49.6953C65.0794 49.6953 65.2669 49.724 65.4336 49.7812C65.6003 49.8359 65.7422 49.9245 65.8594 50.0469C65.9792 50.1693 66.0703 50.3281 66.1328 50.5234C66.1953 50.7161 66.2266 50.9518 66.2266 51.2305V54H65.5V51.2227C65.5 51.0013 65.4674 50.8242 65.4023 50.6914C65.3372 50.556 65.2422 50.4583 65.1172 50.3984C64.9922 50.3359 64.8385 50.3047 64.6562 50.3047C64.4766 50.3047 64.3125 50.3424 64.1641 50.418C64.0182 50.4935 63.8919 50.5977 63.7852 50.7305C63.681 50.8633 63.599 51.0156 63.5391 51.1875C63.4818 51.3568 63.4531 51.5365 63.4531 51.7266ZM69.0781 54.0781C68.7839 54.0781 68.5169 54.0286 68.2773 53.9297C68.0404 53.8281 67.8359 53.6862 67.6641 53.5039C67.4948 53.3216 67.3646 53.1055 67.2734 52.8555C67.1823 52.6055 67.1367 52.332 67.1367 52.0352V51.8711C67.1367 51.5273 67.1875 51.2214 67.2891 50.9531C67.3906 50.6823 67.5286 50.4531 67.7031 50.2656C67.8776 50.0781 68.0755 49.9362 68.2969 49.8398C68.5182 49.7435 68.7474 49.6953 68.9844 49.6953C69.2865 49.6953 69.5469 49.7474 69.7656 49.8516C69.987 49.9557 70.168 50.1016 70.3086 50.2891C70.4492 50.474 70.5534 50.6927 70.6211 50.9453C70.6888 51.1953 70.7227 51.4688 70.7227 51.7656V52.0898H67.5664V51.5H70V51.4453C69.9896 51.2578 69.9505 51.0755 69.8828 50.8984C69.8177 50.7214 69.7135 50.5755 69.5703 50.4609C69.4271 50.3464 69.2318 50.2891 68.9844 50.2891C68.8203 50.2891 68.6693 50.3242 68.5312 50.3945C68.3932 50.4622 68.2747 50.5638 68.1758 50.6992C68.0768 50.8346 68 51 67.9453 51.1953C67.8906 51.3906 67.8633 51.6159 67.8633 51.8711V52.0352C67.8633 52.2357 67.8906 52.4245 67.9453 52.6016C68.0026 52.776 68.0846 52.9297 68.1914 53.0625C68.3008 53.1953 68.4323 53.2995 68.5859 53.375C68.7422 53.4505 68.9193 53.4883 69.1172 53.4883C69.3724 53.4883 69.5885 53.4362 69.7656 53.332C69.9427 53.2279 70.0977 53.0885 70.2305 52.9141L70.668 53.2617C70.5768 53.3997 70.4609 53.5312 70.3203 53.6562C70.1797 53.7812 70.0065 53.8828 69.8008 53.9609C69.5977 54.0391 69.3568 54.0781 69.0781 54.0781ZM74.0273 52.8789C74.0273 52.7747 74.0039 52.6784 73.957 52.5898C73.9128 52.4987 73.8203 52.4167 73.6797 52.3438C73.5417 52.2682 73.3333 52.2031 73.0547 52.1484C72.8203 52.099 72.6081 52.0404 72.418 51.9727C72.2305 51.9049 72.0703 51.8229 71.9375 51.7266C71.8073 51.6302 71.707 51.5169 71.6367 51.3867C71.5664 51.2565 71.5312 51.1042 71.5312 50.9297C71.5312 50.763 71.5677 50.6055 71.6406 50.457C71.7161 50.3086 71.8216 50.1771 71.957 50.0625C72.0951 49.9479 72.2604 49.8581 72.4531 49.793C72.6458 49.7279 72.8607 49.6953 73.0977 49.6953C73.4362 49.6953 73.7253 49.7552 73.9648 49.875C74.2044 49.9948 74.388 50.1549 74.5156 50.3555C74.6432 50.5534 74.707 50.7734 74.707 51.0156H73.9844C73.9844 50.8984 73.9492 50.7852 73.8789 50.6758C73.8112 50.5638 73.7109 50.4714 73.5781 50.3984C73.4479 50.3255 73.2878 50.2891 73.0977 50.2891C72.8971 50.2891 72.7344 50.3203 72.6094 50.3828C72.487 50.4427 72.3971 50.5195 72.3398 50.6133C72.2852 50.707 72.2578 50.806 72.2578 50.9102C72.2578 50.9883 72.2708 51.0586 72.2969 51.1211C72.3255 51.181 72.375 51.237 72.4453 51.2891C72.5156 51.3385 72.6146 51.3854 72.7422 51.4297C72.8698 51.474 73.0326 51.5182 73.2305 51.5625C73.5768 51.6406 73.862 51.7344 74.0859 51.8438C74.3099 51.9531 74.4766 52.0872 74.5859 52.2461C74.6953 52.4049 74.75 52.5977 74.75 52.8242C74.75 53.0091 74.7109 53.1784 74.6328 53.332C74.5573 53.4857 74.4466 53.6185 74.3008 53.7305C74.1576 53.8398 73.9857 53.9258 73.7852 53.9883C73.5872 54.0482 73.3646 54.0781 73.1172 54.0781C72.7448 54.0781 72.4297 54.0117 72.1719 53.8789C71.9141 53.7461 71.7188 53.5742 71.5859 53.3633C71.4531 53.1523 71.3867 52.9297 71.3867 52.6953H72.1133C72.1237 52.8932 72.181 53.0508 72.2852 53.168C72.3893 53.2826 72.5169 53.3646 72.668 53.4141C72.819 53.4609 72.9688 53.4844 73.1172 53.4844C73.3151 53.4844 73.4805 53.4583 73.6133 53.4062C73.7487 53.3542 73.8516 53.2826 73.9219 53.1914C73.9922 53.1003 74.0273 52.9961 74.0273 52.8789ZM75.5078 51.9336V51.8438C75.5078 51.5391 75.5521 51.2565 75.6406 50.9961C75.7292 50.7331 75.8568 50.5052 76.0234 50.3125C76.1901 50.1172 76.3919 49.9661 76.6289 49.8594C76.8659 49.75 77.1315 49.6953 77.4258 49.6953C77.7227 49.6953 77.9896 49.75 78.2266 49.8594C78.4661 49.9661 78.6693 50.1172 78.8359 50.3125C79.0052 50.5052 79.1341 50.7331 79.2227 50.9961C79.3112 51.2565 79.3555 51.5391 79.3555 51.8438V51.9336C79.3555 52.2383 79.3112 52.5208 79.2227 52.7812C79.1341 53.0417 79.0052 53.2695 78.8359 53.4648C78.6693 53.6576 78.4674 53.8086 78.2305 53.918C77.9961 54.0247 77.7305 54.0781 77.4336 54.0781C77.1367 54.0781 76.8698 54.0247 76.6328 53.918C76.3958 53.8086 76.1927 53.6576 76.0234 53.4648C75.8568 53.2695 75.7292 53.0417 75.6406 52.7812C75.5521 52.5208 75.5078 52.2383 75.5078 51.9336ZM76.2305 51.8438V51.9336C76.2305 52.1445 76.2552 52.3438 76.3047 52.5312C76.3542 52.7161 76.4284 52.8802 76.5273 53.0234C76.6289 53.1667 76.7552 53.2799 76.9062 53.3633C77.0573 53.444 77.2331 53.4844 77.4336 53.4844C77.6315 53.4844 77.8047 53.444 77.9531 53.3633C78.1042 53.2799 78.2292 53.1667 78.3281 53.0234C78.4271 52.8802 78.5013 52.7161 78.5508 52.5312C78.6029 52.3438 78.6289 52.1445 78.6289 51.9336V51.8438C78.6289 51.6354 78.6029 51.4388 78.5508 51.2539C78.5013 51.0664 78.4258 50.901 78.3242 50.7578C78.2253 50.612 78.1003 50.4974 77.9492 50.4141C77.8008 50.3307 77.6263 50.2891 77.4258 50.2891C77.2279 50.2891 77.0534 50.3307 76.9023 50.4141C76.7539 50.4974 76.6289 50.612 76.5273 50.7578C76.4284 50.901 76.3542 51.0664 76.3047 51.2539C76.2552 51.4388 76.2305 51.6354 76.2305 51.8438ZM82.0312 49.7734V50.3281H79.7461V49.7734H82.0312ZM80.5195 48.7461H81.2422V52.9531C81.2422 53.0964 81.2643 53.2044 81.3086 53.2773C81.3529 53.3503 81.4102 53.3984 81.4805 53.4219C81.5508 53.4453 81.6263 53.457 81.707 53.457C81.7669 53.457 81.8294 53.4518 81.8945 53.4414C81.9622 53.4284 82.013 53.418 82.0469 53.4102L82.0508 54C81.9935 54.0182 81.918 54.0352 81.8242 54.0508C81.7331 54.069 81.6224 54.0781 81.4922 54.0781C81.3151 54.0781 81.1523 54.043 81.0039 53.9727C80.8555 53.9023 80.737 53.7852 80.6484 53.6211C80.5625 53.4544 80.5195 53.2305 80.5195 52.9492V48.7461ZM85.3711 53.2773V51.1016C85.3711 50.9349 85.3372 50.7904 85.2695 50.668C85.2044 50.543 85.1055 50.4466 84.9727 50.3789C84.8398 50.3112 84.6758 50.2773 84.4805 50.2773C84.2982 50.2773 84.138 50.3086 84 50.3711C83.8646 50.4336 83.7578 50.5156 83.6797 50.6172C83.6042 50.7188 83.5664 50.8281 83.5664 50.9453H82.8438C82.8438 50.7943 82.8828 50.6445 82.9609 50.4961C83.0391 50.3477 83.151 50.2135 83.2969 50.0938C83.4453 49.9714 83.6224 49.875 83.8281 49.8047C84.0365 49.7318 84.2682 49.6953 84.5234 49.6953C84.8307 49.6953 85.1016 49.7474 85.3359 49.8516C85.5729 49.9557 85.7578 50.1133 85.8906 50.3242C86.026 50.5326 86.0938 50.7943 86.0938 51.1094V53.0781C86.0938 53.2188 86.1055 53.3685 86.1289 53.5273C86.1549 53.6862 86.1927 53.8229 86.2422 53.9375V54H85.4883C85.4518 53.9167 85.4232 53.806 85.4023 53.668C85.3815 53.5273 85.3711 53.3971 85.3711 53.2773ZM85.4961 51.4375L85.5039 51.9453H84.7734C84.5677 51.9453 84.3841 51.9622 84.2227 51.9961C84.0612 52.0273 83.9258 52.0755 83.8164 52.1406C83.707 52.2057 83.6237 52.2878 83.5664 52.3867C83.5091 52.4831 83.4805 52.5964 83.4805 52.7266C83.4805 52.8594 83.5104 52.9805 83.5703 53.0898C83.6302 53.1992 83.7201 53.2865 83.8398 53.3516C83.9622 53.4141 84.112 53.4453 84.2891 53.4453C84.5104 53.4453 84.7057 53.3984 84.875 53.3047C85.0443 53.2109 85.1784 53.0964 85.2773 52.9609C85.3789 52.8255 85.4336 52.694 85.4414 52.5664L85.75 52.9141C85.7318 53.0234 85.6823 53.1445 85.6016 53.2773C85.5208 53.4102 85.4128 53.5378 85.2773 53.6602C85.1445 53.7799 84.9857 53.8802 84.8008 53.9609C84.6185 54.0391 84.4128 54.0781 84.1836 54.0781C83.8971 54.0781 83.6458 54.0221 83.4297 53.9102C83.2161 53.7982 83.0495 53.6484 82.9297 53.4609C82.8125 53.2708 82.7539 53.0586 82.7539 52.8242C82.7539 52.5977 82.7982 52.3984 82.8867 52.2266C82.9753 52.0521 83.1029 51.9076 83.2695 51.793C83.4362 51.6758 83.6367 51.5872 83.8711 51.5273C84.1055 51.4674 84.3672 51.4375 84.6562 51.4375H85.4961ZM87.8867 53.1406V53.7227C87.8867 53.9596 87.8268 54.2096 87.707 54.4727C87.5872 54.7383 87.4193 54.9596 87.2031 55.1367L86.793 54.8516C86.8763 54.737 86.9466 54.6198 87.0039 54.5C87.0612 54.3828 87.1042 54.2604 87.1328 54.1328C87.1641 54.0078 87.1797 53.875 87.1797 53.7344V53.1406H87.8867ZM94.1562 48.3125H94.9062V52.1602C94.9062 52.5872 94.8112 52.9427 94.6211 53.2266C94.431 53.5104 94.1784 53.724 93.8633 53.8672C93.5508 54.0078 93.2109 54.0781 92.8438 54.0781C92.4583 54.0781 92.1094 54.0078 91.7969 53.8672C91.487 53.724 91.2409 53.5104 91.0586 53.2266C90.8789 52.9427 90.7891 52.5872 90.7891 52.1602V48.3125H91.5352V52.1602C91.5352 52.457 91.5898 52.7018 91.6992 52.8945C91.8086 53.0872 91.9609 53.2305 92.1562 53.3242C92.3542 53.418 92.5833 53.4648 92.8438 53.4648C93.1068 53.4648 93.3359 53.418 93.5312 53.3242C93.7292 53.2305 93.8828 53.0872 93.9922 52.8945C94.1016 52.7018 94.1562 52.457 94.1562 52.1602V48.3125ZM99.1211 52.5625C99.1211 52.4297 99.1003 52.3125 99.0586 52.2109C99.0195 52.1068 98.9492 52.013 98.8477 51.9297C98.7487 51.8464 98.6107 51.7669 98.4336 51.6914C98.2591 51.6159 98.0378 51.5391 97.7695 51.4609C97.4883 51.3776 97.2344 51.2852 97.0078 51.1836C96.7812 51.0794 96.5872 50.9609 96.4258 50.8281C96.2643 50.6953 96.1406 50.543 96.0547 50.3711C95.9688 50.1992 95.9258 50.0026 95.9258 49.7812C95.9258 49.5599 95.9714 49.3555 96.0625 49.168C96.1536 48.9805 96.2839 48.8177 96.4531 48.6797C96.625 48.5391 96.8294 48.4297 97.0664 48.3516C97.3034 48.2734 97.5677 48.2344 97.8594 48.2344C98.2865 48.2344 98.6484 48.3164 98.9453 48.4805C99.2448 48.6419 99.4727 48.8542 99.6289 49.1172C99.7852 49.3776 99.8633 49.6562 99.8633 49.9531H99.1133C99.1133 49.7396 99.0677 49.5508 98.9766 49.3867C98.8854 49.2201 98.7474 49.0898 98.5625 48.9961C98.3776 48.8997 98.1432 48.8516 97.8594 48.8516C97.5911 48.8516 97.3698 48.8919 97.1953 48.9727C97.0208 49.0534 96.8906 49.1628 96.8047 49.3008C96.7214 49.4388 96.6797 49.5964 96.6797 49.7734C96.6797 49.8932 96.7044 50.0026 96.7539 50.1016C96.806 50.1979 96.8854 50.2878 96.9922 50.3711C97.1016 50.4544 97.2396 50.5312 97.4062 50.6016C97.5755 50.6719 97.7773 50.7396 98.0117 50.8047C98.3346 50.8958 98.6133 50.9974 98.8477 51.1094C99.082 51.2214 99.2747 51.3477 99.4258 51.4883C99.5794 51.6263 99.6927 51.7839 99.7656 51.9609C99.8411 52.1354 99.8789 52.3333 99.8789 52.5547C99.8789 52.7865 99.832 52.9961 99.7383 53.1836C99.6445 53.3711 99.5104 53.5312 99.3359 53.6641C99.1615 53.7969 98.9518 53.8997 98.707 53.9727C98.4648 54.043 98.194 54.0781 97.8945 54.0781C97.6315 54.0781 97.3724 54.0417 97.1172 53.9688C96.8646 53.8958 96.6341 53.7865 96.4258 53.6406C96.2201 53.4948 96.0547 53.3151 95.9297 53.1016C95.8073 52.8854 95.7461 52.6354 95.7461 52.3516H96.4961C96.4961 52.5469 96.5339 52.7148 96.6094 52.8555C96.6849 52.9935 96.7878 53.1081 96.918 53.1992C97.0508 53.2904 97.2005 53.3581 97.3672 53.4023C97.5365 53.444 97.7122 53.4648 97.8945 53.4648C98.1576 53.4648 98.3802 53.4284 98.5625 53.3555C98.7448 53.2826 98.8828 53.1784 98.9766 53.043C99.0729 52.9076 99.1211 52.7474 99.1211 52.5625ZM102.945 48.8164L101.062 54H100.293L102.461 48.3125H102.957L102.945 48.8164ZM104.523 54L102.637 48.8164L102.625 48.3125H103.121L105.297 54H104.523ZM104.426 51.8945V52.5117H101.23V51.8945H104.426Z" fill="#862828"/>
<circle cx="138" cy="52" r="2" fill="#3CB73A"/>
<path d="M147.103 52.4907H145.393V51.8008H147.103C147.434 51.8008 147.702 51.748 147.907 51.6426C148.112 51.5371 148.261 51.3906 148.355 51.2031C148.452 51.0156 148.5 50.8018 148.5 50.5615C148.5 50.3418 148.452 50.1353 148.355 49.9419C148.261 49.7485 148.112 49.5933 147.907 49.4761C147.702 49.356 147.434 49.2959 147.103 49.2959H145.591V55H144.743V48.6016H147.103C147.586 48.6016 147.995 48.6851 148.329 48.8521C148.663 49.019 148.916 49.2505 149.089 49.5464C149.262 49.8394 149.348 50.1748 149.348 50.5527C149.348 50.9629 149.262 51.313 149.089 51.603C148.916 51.8931 148.663 52.1143 148.329 52.2666C147.995 52.416 147.586 52.4907 147.103 52.4907ZM151.181 50.2451V55H150.363V50.2451H151.181ZM150.302 48.9839C150.302 48.8521 150.341 48.7407 150.42 48.6499C150.502 48.5591 150.623 48.5137 150.781 48.5137C150.936 48.5137 151.055 48.5591 151.137 48.6499C151.222 48.7407 151.264 48.8521 151.264 48.9839C151.264 49.1099 151.222 49.2183 151.137 49.3091C151.055 49.397 150.936 49.4409 150.781 49.4409C150.623 49.4409 150.502 49.397 150.42 49.3091C150.341 49.2183 150.302 49.1099 150.302 48.9839ZM153.299 51.2603V55H152.486V50.2451H153.255L153.299 51.2603ZM153.105 52.4424L152.767 52.4292C152.77 52.104 152.818 51.8037 152.912 51.5283C153.006 51.25 153.138 51.0083 153.308 50.8032C153.478 50.5981 153.68 50.4399 153.914 50.3286C154.151 50.2144 154.414 50.1572 154.701 50.1572C154.935 50.1572 155.146 50.1895 155.333 50.2539C155.521 50.3154 155.681 50.415 155.812 50.5527C155.947 50.6904 156.05 50.8691 156.12 51.0889C156.19 51.3057 156.226 51.5708 156.226 51.8843V55H155.408V51.8755C155.408 51.6265 155.372 51.4272 155.298 51.2778C155.225 51.1255 155.118 51.0156 154.978 50.9482C154.837 50.8779 154.664 50.8428 154.459 50.8428C154.257 50.8428 154.072 50.8853 153.905 50.9702C153.741 51.0552 153.599 51.1724 153.479 51.3218C153.362 51.4712 153.27 51.6426 153.202 51.8359C153.138 52.0264 153.105 52.2285 153.105 52.4424ZM160.541 50.2451H161.279V54.8989C161.279 55.3179 161.194 55.6753 161.024 55.9712C160.854 56.2671 160.617 56.4912 160.312 56.6436C160.011 56.7988 159.662 56.8765 159.267 56.8765C159.103 56.8765 158.909 56.8501 158.687 56.7974C158.467 56.7476 158.25 56.6611 158.036 56.5381C157.825 56.418 157.648 56.2554 157.504 56.0503L157.931 55.5669C158.13 55.8071 158.338 55.9741 158.555 56.0679C158.774 56.1616 158.991 56.2085 159.205 56.2085C159.463 56.2085 159.686 56.1602 159.873 56.0635C160.061 55.9668 160.206 55.8232 160.308 55.6328C160.414 55.4453 160.466 55.2139 160.466 54.9385V51.291L160.541 50.2451ZM157.267 52.6753V52.583C157.267 52.2197 157.31 51.8901 157.395 51.5942C157.482 51.2954 157.607 51.0391 157.768 50.8252C157.932 50.6113 158.13 50.4473 158.361 50.333C158.593 50.2158 158.854 50.1572 159.144 50.1572C159.442 50.1572 159.703 50.21 159.926 50.3154C160.151 50.418 160.342 50.5688 160.497 50.7681C160.655 50.9644 160.78 51.2017 160.871 51.48C160.961 51.7583 161.024 52.0732 161.06 52.4248V52.8291C161.027 53.1777 160.964 53.4912 160.871 53.7695C160.78 54.0479 160.655 54.2852 160.497 54.4814C160.342 54.6777 160.151 54.8286 159.926 54.9341C159.7 55.0366 159.437 55.0879 159.135 55.0879C158.851 55.0879 158.593 55.0278 158.361 54.9077C158.133 54.7876 157.937 54.6191 157.772 54.4023C157.608 54.1855 157.482 53.9307 157.395 53.6377C157.31 53.3418 157.267 53.021 157.267 52.6753ZM158.08 52.583V52.6753C158.08 52.9126 158.104 53.1353 158.15 53.3433C158.2 53.5513 158.275 53.7344 158.375 53.8926C158.477 54.0508 158.607 54.1753 158.766 54.2661C158.924 54.354 159.113 54.3979 159.333 54.3979C159.602 54.3979 159.825 54.3408 160 54.2266C160.176 54.1123 160.315 53.9614 160.418 53.7739C160.523 53.5864 160.605 53.3828 160.664 53.1631V52.104C160.632 51.9429 160.582 51.7876 160.515 51.6382C160.45 51.4858 160.365 51.3511 160.26 51.2339C160.157 51.1138 160.03 51.0186 159.877 50.9482C159.725 50.8779 159.546 50.8428 159.341 50.8428C159.119 50.8428 158.927 50.8896 158.766 50.9834C158.607 51.0742 158.477 51.2002 158.375 51.3613C158.275 51.5195 158.2 51.7041 158.15 51.915C158.104 52.123 158.08 52.3457 158.08 52.583ZM162.479 54.5693C162.479 54.4316 162.521 54.3159 162.606 54.2222C162.694 54.1255 162.82 54.0771 162.984 54.0771C163.148 54.0771 163.273 54.1255 163.358 54.2222C163.446 54.3159 163.49 54.4316 163.49 54.5693C163.49 54.7041 163.446 54.8184 163.358 54.9121C163.273 55.0059 163.148 55.0527 162.984 55.0527C162.82 55.0527 162.694 55.0059 162.606 54.9121C162.521 54.8184 162.479 54.7041 162.479 54.5693ZM162.483 50.689C162.483 50.5513 162.526 50.4355 162.611 50.3418C162.699 50.2451 162.825 50.1968 162.989 50.1968C163.153 50.1968 163.277 50.2451 163.362 50.3418C163.45 50.4355 163.494 50.5513 163.494 50.689C163.494 50.8237 163.45 50.938 163.362 51.0317C163.277 51.1255 163.153 51.1724 162.989 51.1724C162.825 51.1724 162.699 51.1255 162.611 51.0317C162.526 50.938 162.483 50.8237 162.483 50.689ZM169.958 48.5928H170.029V49.2827H169.958C169.528 49.2827 169.167 49.353 168.877 49.4937C168.587 49.6313 168.357 49.8174 168.188 50.0518C168.018 50.2832 167.895 50.5439 167.818 50.834C167.745 51.124 167.708 51.4185 167.708 51.7173V52.6577C167.708 52.9419 167.742 53.1938 167.81 53.4136C167.877 53.6304 167.969 53.8135 168.086 53.9629C168.204 54.1123 168.335 54.2251 168.482 54.3013C168.631 54.3774 168.787 54.4155 168.948 54.4155C169.135 54.4155 169.302 54.3804 169.449 54.3101C169.595 54.2368 169.718 54.1357 169.818 54.0068C169.92 53.875 169.998 53.7197 170.051 53.541C170.104 53.3623 170.13 53.166 170.13 52.9521C170.13 52.7617 170.106 52.5786 170.06 52.4028C170.013 52.2241 169.941 52.0659 169.844 51.9282C169.748 51.7876 169.626 51.6777 169.479 51.5986C169.336 51.5166 169.165 51.4756 168.965 51.4756C168.74 51.4756 168.529 51.5312 168.333 51.6426C168.139 51.751 167.979 51.8945 167.854 52.0732C167.73 52.249 167.66 52.4409 167.643 52.6489L167.212 52.6445C167.253 52.3164 167.329 52.0366 167.44 51.8052C167.555 51.5708 167.695 51.3804 167.862 51.2339C168.032 51.0845 168.221 50.9761 168.429 50.9087C168.64 50.8384 168.863 50.8032 169.097 50.8032C169.417 50.8032 169.692 50.8633 169.923 50.9834C170.155 51.1035 170.345 51.2646 170.495 51.4668C170.644 51.666 170.754 51.8916 170.824 52.1436C170.897 52.3926 170.934 52.6489 170.934 52.9126C170.934 53.2144 170.892 53.4971 170.807 53.7607C170.722 54.0244 170.594 54.2559 170.424 54.4551C170.257 54.6543 170.051 54.8096 169.805 54.9209C169.559 55.0322 169.273 55.0879 168.948 55.0879C168.602 55.0879 168.3 55.0176 168.042 54.877C167.785 54.7334 167.571 54.543 167.401 54.3057C167.231 54.0684 167.104 53.8047 167.019 53.5146C166.934 53.2246 166.891 52.9302 166.891 52.6313V52.249C166.891 51.7979 166.937 51.3555 167.027 50.9219C167.118 50.4883 167.275 50.0957 167.498 49.7441C167.723 49.3926 168.035 49.1128 168.434 48.9048C168.832 48.6968 169.34 48.5928 169.958 48.5928ZM175.917 51.291V52.2666C175.917 52.791 175.871 53.2334 175.777 53.5938C175.683 53.9541 175.548 54.2441 175.373 54.4639C175.197 54.6836 174.984 54.8433 174.735 54.9429C174.489 55.0396 174.211 55.0879 173.9 55.0879C173.654 55.0879 173.427 55.0571 173.219 54.9956C173.011 54.9341 172.824 54.8359 172.657 54.7012C172.493 54.5635 172.352 54.3848 172.235 54.165C172.118 53.9453 172.028 53.6787 171.967 53.3652C171.905 53.0518 171.875 52.6855 171.875 52.2666V51.291C171.875 50.7666 171.921 50.3271 172.015 49.9727C172.112 49.6182 172.248 49.334 172.424 49.1201C172.6 48.9033 172.811 48.748 173.057 48.6543C173.306 48.5605 173.584 48.5137 173.892 48.5137C174.141 48.5137 174.369 48.5444 174.577 48.606C174.788 48.6646 174.976 48.7598 175.14 48.8916C175.304 49.0205 175.443 49.1934 175.557 49.4102C175.674 49.624 175.764 49.8862 175.825 50.1968C175.887 50.5073 175.917 50.8721 175.917 51.291ZM175.1 52.3984V51.1548C175.1 50.8677 175.083 50.6157 175.047 50.3989C175.015 50.1792 174.967 49.9917 174.902 49.8364C174.838 49.6812 174.756 49.5552 174.656 49.4585C174.56 49.3618 174.447 49.2915 174.318 49.2476C174.192 49.2007 174.05 49.1772 173.892 49.1772C173.698 49.1772 173.527 49.2139 173.377 49.2871C173.228 49.3574 173.102 49.4702 173 49.6255C172.9 49.7808 172.824 49.9844 172.771 50.2363C172.718 50.4883 172.692 50.7944 172.692 51.1548V52.3984C172.692 52.6855 172.708 52.939 172.74 53.1587C172.775 53.3784 172.827 53.5688 172.894 53.73C172.961 53.8882 173.043 54.0186 173.14 54.1211C173.237 54.2236 173.348 54.2998 173.474 54.3496C173.603 54.3965 173.745 54.4199 173.9 54.4199C174.1 54.4199 174.274 54.3818 174.423 54.3057C174.573 54.2295 174.697 54.1108 174.797 53.9497C174.899 53.7856 174.976 53.5762 175.025 53.3213C175.075 53.0635 175.1 52.7559 175.1 52.3984Z" fill="white"/>
</g>
<g clip-path="url(#clip1_2111_14)">
<path d="M38 57C41.866 57 45 53.866 45 50C45 46.134 41.866 43 38 43C34.134 43 31 46.134 31 50C31 53.866 34.134 57 38 57Z" fill="#F0F0F0"/>
<path d="M37.6957 50H45C45 49.3682 44.9158 48.7561 44.7589 48.1739H37.6957V50Z" fill="#D80027"/>
<path d="M37.6957 46.3478H43.9726C43.5441 45.6486 42.9962 45.0305 42.3574 44.5217H37.6957V46.3478Z" fill="#D80027"/>
<path d="M38 57C39.6474 57 41.1616 56.4306 42.3574 55.4783H33.6426C34.8384 56.4306 36.3526 57 38 57Z" fill="#D80027"/>
<path d="M32.0274 53.6521H43.9726C44.3166 53.0908 44.5834 52.4772 44.7589 51.826H31.2411C31.4166 52.4772 31.6834 53.0908 32.0274 53.6521Z" fill="#D80027"/>
<path d="M34.2425 44.0931H34.8804L34.2871 44.5242L34.5137 45.2217L33.9204 44.7907L33.3271 45.2217L33.5228 44.6192C33.0004 45.0543 32.5425 45.5642 32.1652 46.1323H32.3696L31.9919 46.4067C31.933 46.5048 31.8766 46.6046 31.8225 46.7058L32.0029 47.2609L31.6664 47.0164C31.5827 47.1936 31.5062 47.3748 31.4374 47.5598L31.6362 48.1714H32.3696L31.7762 48.6025L32.0029 49.3L31.4095 48.8689L31.0541 49.1272C31.0185 49.4131 31 49.7044 31 50H38C38 46.134 38 45.6783 38 43C36.6172 43 35.3281 43.4011 34.2425 44.0931ZM34.5137 49.3L33.9204 48.8689L33.3271 49.3L33.5537 48.6025L32.9604 48.1714H33.6938L33.9204 47.4739L34.147 48.1714H34.8804L34.2871 48.6025L34.5137 49.3ZM34.2871 46.5634L34.5137 47.2609L33.9204 46.8298L33.3271 47.2609L33.5537 46.5634L32.9604 46.1323H33.6938L33.9204 45.4348L34.147 46.1323H34.8804L34.2871 46.5634ZM37.0246 49.3L36.4313 48.8689L35.8379 49.3L36.0646 48.6025L35.4712 48.1714H36.2046L36.4313 47.4739L36.6579 48.1714H37.3913L36.7979 48.6025L37.0246 49.3ZM36.7979 46.5634L37.0246 47.2609L36.4313 46.8298L35.8379 47.2609L36.0646 46.5634L35.4712 46.1323H36.2046L36.4313 45.4348L36.6579 46.1323H37.3913L36.7979 46.5634ZM36.7979 44.5242L37.0246 45.2217L36.4313 44.7907L35.8379 45.2217L36.0646 44.5242L35.4712 44.0931H36.2046L36.4313 43.3956L36.6579 44.0931H37.3913L36.7979 44.5242Z" fill="#0052B4"/>
</g>
<path d="M25 239.339L28.6096 235.643L32.6203 237.696L35.8289 234H40.2406L43.8503 239.339L47.0588 235.643H49.0642H57.4866L62.7005 247.964L67.1123 247.143L69.9198 255.357L73.5294 252.482H77.5401L82.3529 251.25L84.7594 255.357L88.369 253.714L93.1818 257H101.203L103.61 253.714L107.219 255.357L111.23 251.25L118.449 255.357L125.668 252.482L131.684 253.714L139.305 257L142.513 252.482L147.326 255.357L150.535 251.25L155.749 253.714L160.16 250.429L165.775 253.714L169.786 247.964L175 250.429" stroke="#D96C39" stroke-width="2"/>
<g filter="url(#filter1_d_2111_14)">
<circle cx="100" cy="159" r="45" fill="#862828"/>
<circle cx="100" cy="159" r="39" fill="white"/>
<path d="M100.409 144.068V157.875" stroke="#862828" stroke-width="3" stroke-linecap="round"/>
<path d="M110.172 149.646C115.564 155.038 115.564 163.78 110.172 169.172C104.78 174.564 96.0381 174.564 90.6462 169.172C85.2543 163.78 85.2543 155.038 90.6462 149.646" stroke="#862828" stroke-width="3" stroke-linecap="round"/>
</g>
</g>
<defs>
<filter id="filter0_d_2111_14" x="23" y="41" width="94" height="28" filterUnits="userSpaceOnUse" color-interpolation-filters="sRGB">
<feFlood flood-opacity="0" result="BackgroundImageFix"/>
<feColorMatrix in="SourceAlpha" type="matrix" values="0 0 0 0 0 0 0 0 0 0 0 0 0 0 0 0 0 0 127 0" result="hardAlpha"/>
<feOffset dy="4"/>
<feGaussianBlur stdDeviation="2"/>
<feComposite in2="hardAlpha" operator="out"/>
<feColorMatrix type="matrix" values="0 0 0 0 0.294118 0 0 0 0 0.0235294 0 0 0 0 0.0235294 0 0 0 1 0"/>
<feBlend mode="normal" in2="BackgroundImageFix" result="effect1_dropShadow_2111_14"/>
<feBlend mode="normal" in="SourceGraphic" in2="effect1_dropShadow_2111_14" result="shape"/>
</filter>
<filter id="filter1_d_2111_14" x="51" y="114" width="98" height="98" filterUnits="userSpaceOnUse" color-interpolation-filters="sRGB">
<feFlood flood-opacity="0" result="BackgroundImageFix"/>
<feColorMatrix in="SourceAlpha" type="matrix" values="0 0 0 0 0 0 0 0 0 0 0 0 0 0 0 0 0 0 127 0" result="hardAlpha"/>
<feOffset dy="4"/>
<feGaussianBlur stdDeviation="2"/>
<feComposite in2="hardAlpha" operator="out"/>
<feColorMatrix type="matrix" values="0 0 0 0 0.294118 0 0 0 0 0.0235294 0 0 0 0 0.0235294 0 0 0 1 0"/>
<feBlend mode="normal" in2="BackgroundImageFix" result="effect1_dropShadow_2111_14"/>
<feBlend mode="normal" in="SourceGraphic" in2="effect1_dropShadow_2111_14" result="shape"/>
</filter>
<linearGradient id="paint0_linear_2111_14" x1="102" y1="9" x2="102" y2="398" gradientUnits="userSpaceOnUse">
<stop stop-color="#4B0606"/>
<stop offset="1" stop-color="#862828"/>
</linearGradient>
<clipPath id="clip0_2111_14">
<rect width="201" height="408" fill="white"/>
</clipPath>
<clipPath id="clip1_2111_14">
<rect width="14" height="14" fill="white" transform="translate(31 43)"/>
</clipPath>
</defs>
</svg>
