<svg version="1" xmlns="http://www.w3.org/2000/svg" width="933.333" height="933.333" viewBox="0 0 700.000000 700.000000"><path d="M137.5 3.7c-1.1 2-2.4 4.1-3 4.7-.5.6-26 38.7-56.5 84.6-30.5 45.9-55.7 83.7-56 84-.3.3-5.3 7.8-11.2 16.7L.1 209.9l2.2 3.3c3.9 5.7 35.1 49.3 35.7 49.8.3.3 1.7 2.4 3.3 4.7 1.5 2.3 6.6 9.6 11.4 16.2 8.7 11.8 36 50 43.8 61.2 2.2 3.1 11.2 15.7 20 28s17.8 24.9 20 28c10.3 14.6 21.2 30 25.4 35.6 2.5 3.4 10.7 14.8 18.1 25.3 7.4 10.6 14.6 20.6 16 22.5 1.4 1.8 3.2 4.3 4 5.5.8 1.3 2.4 3.5 3.5 4.9 1.1 1.4 3.4 4.5 5 6.9 4.7 6.7 11 15.6 24 33.6 6.6 9.2 12.7 17.7 13.5 18.9 1.9 2.9 31.2 43.9 32.2 45.2 1.1 1.3 20.4 28.3 22.6 31.5.9 1.4 8 11.3 15.7 22 7.6 10.7 18.3 25.7 23.6 33.3l9.7 13.7 1.9-2.4c1-1.3 2.4-3.2 3.1-4.2.7-1.1 18.8-26.4 40.2-56.4 21.4-30 39.4-55.2 40-56 .6-.8 4-5.6 7.6-10.5 3.5-5 7.5-10.6 8.8-12.5 1.3-1.9 18.2-25.6 37.5-52.5 19.2-27 35.5-49.7 36.1-50.5.6-.8 18.6-26 40-56s39.4-55.2 40-56c4.6-6.5 44.5-62.4 46.8-65.5 1.6-2.2 12.1-16.8 23.2-32.5 11.2-15.7 21.4-29.9 22.7-31.6l2.3-3.1-4.2-6.1c-2.4-3.4-11.5-16.1-20.3-28.3-8.8-12.1-16.7-23.1-17.5-24.2-2.6-3.9-22.9-32.2-23.7-33.2-.7-.8-28.8-39.9-55.7-77.5-3.4-4.7-6.5-9-6.9-9.5-.4-.6-5.6-7.8-11.5-16L549.4.5l-205-.3L139.5 0l-2 3.7z"/></svg>